<?xml version="1.0" encoding="utf-8"?>
<!-- Generator: Adobe Illustrator 18.0.0, SVG Export Plug-In . SVG Version: 6.00 Build 0)  -->
<!DOCTYPE svg PUBLIC "-//W3C//DTD SVG 1.1//EN" "http://www.w3.org/Graphics/SVG/1.1/DTD/svg11.dtd">
<svg version="1.1" id="Layer_1" xmlns="http://www.w3.org/2000/svg" xmlns:xlink="http://www.w3.org/1999/xlink" x="0px" y="0px"
	 viewBox="0 0 199.5 199.5" enable-background="new 0 0 199.5 199.5" xml:space="preserve">
<g>
	<circle fill="#FFFFFF" stroke="#000000" stroke-width="0.5" stroke-miterlimit="10" cx="99.7" cy="99.8" r="99.5"/>
	<path fill="#EEB87D" d="M58.4,98.6"/>
	<g>
		<path fill="#5E391C" d="M54.6,111.1c-2.6,0.8-4.4-0.7-4-3.4l9-58.2c0.4-2.7,2.3-3.3,4.2-1.3l40.7,42.5c1.9,2,1.3,4.3-1.3,5.1
			L54.6,111.1z"/>
	</g>
	<g>
		<path fill="#5E391C" d="M84.1,78.7c-2.3-1.5-2.3-3.8,0-5.3l50.2-30.8c2.3-1.4,4-0.4,3.7,2.4l-6.1,58.6c-0.3,2.7-2.4,3.8-4.7,2.3
			L84.1,78.7z"/>
	</g>
	<g>
		<path fill="#5E391C" d="M113.5,88.2c-2.3-1.5-2.3-3.8,0-5.3l50.2-30.8c2.3-1.4,4-0.4,3.7,2.4l-6.1,58.6c-0.3,2.7-2.4,3.8-4.7,2.3
			L113.5,88.2z"/>
	</g>
	<g>
		<path fill="#5E391C" d="M124.2,94c-1.5-2.3-0.5-4.5,2.3-4.8l58.5-6.8c2.7-0.3,3.8,1.4,2.4,3.7l-30.2,50.6
			c-1.4,2.4-3.8,2.4-5.3,0.1L124.2,94z"/>
	</g>
	<g>
		<path fill="#5E391C" d="M45.4,132.2c-1.5,2.3-3.9,2.3-5.3-0.1L10.1,81.5c-1.4-2.4-0.3-4,2.4-3.7l58.5,7c2.7,0.3,3.7,2.5,2.2,4.8
			L45.4,132.2z"/>
	</g>
	<g>
		<path fill="#5E391C" d="M63,97c-2.7,0-4-2.1-2.7-4.5l33.4-64.8c1.3-2.4,3.3-2.4,4.4,0.1l31.1,65.9c1.2,2.5-0.1,4.5-2.9,4.4L63,97z
			"/>
	</g>
	<g>
		<path fill="#A37347" d="M83.1,100.6c-2.7,0.2-4.1-1.7-3.1-4.3l17.9-43.2c1.1-2.5,3.1-2.7,4.5-0.3l23.7,40.3
			c1.4,2.4,0.3,4.5-2.5,4.7L83.1,100.6z"/>
	</g>
	<g>
		<path fill="#A37347" d="M52.6,107.9c-2.3,1.5-4.7,0.5-5.3-2.1l-6.4-28.6c-0.6-2.7,0.7-3.5,2.9-1.9l23.6,17.4
			c2.2,1.6,2.1,4.2-0.2,5.7L52.6,107.9z"/>
	</g>
	<g>
		<path fill="#A37347" d="M53.7,142.7c0.5,2.7-1.3,4.5-4,4l-28.8-5.3c-2.7-0.5-3-2-0.6-3.4L45.4,123c2.4-1.4,4.7-0.3,5.2,2.4
			L53.7,142.7z"/>
	</g>
	<g>
		<path fill="#A37347" d="M151.3,113.8c1.4,2.3,3.8,2.4,5.3,0l11.2-17.9c1.5-2.3,0.4-4-2.3-3.8l-21,2c-2.7,0.3-3.8,2.4-2.4,4.7
			L151.3,113.8z"/>
	</g>
	<g>
		<path fill="#A37347" d="M147,146.3c-0.5,2.7,1.2,4.3,3.8,3.6l20.4-5.4c2.7-0.7,3.1-2.7,0.9-4.3l-16.7-12.9
			c-2.2-1.7-4.4-0.9-4.9,1.8L147,146.3z"/>
	</g>
	<g>
		<path fill="#A37347" d="M59.1,115.5c1.8-2.1,1.1-4.3-1.5-5.1L37.2,105c-2.7-0.7-4,0.8-2.9,3.3l8,19.5c1,2.5,3.4,2.9,5.2,0.9
			L59.1,115.5z"/>
	</g>
	<g>
		<path fill="#A37347" d="M66.1,103.5c-2.6,0.8-4.4-0.8-3.9-3.5l3.6-20.8c0.5-2.7,2.4-3.3,4.2-1.2l14.3,15.5c1.9,2,1.2,4.3-1.4,5.1
			L66.1,103.5z"/>
	</g>
	<g>
		<path fill="#A37347" d="M141.4,101.5c2.7,0.3,4.7-1.6,4.4-4.3l-2.4-20c-0.3-2.7-2.4-3.6-4.5-1.8l-24.1,19.2
			c-2.2,1.7-1.7,3.4,1,3.7L141.4,101.5z"/>
	</g>
	<g>
		<path fill="#EEB87D" d="M142,153.1H59.4c-6.6,0-12-5.4-12-12v-31.8c0-6.6,5.4-12,12-12H142c6.6,0,12,5.4,12,12v31.8
			C154,147.7,148.6,153.1,142,153.1z"/>
		<ellipse fill="#EEB87D" cx="100.7" cy="106.1" rx="50.3" ry="13.2"/>
		<ellipse fill="#EEB87D" cx="100.7" cy="147.2" rx="50.3" ry="13.2"/>
		<ellipse fill="#EEB87D" cx="32.6" cy="124.3" rx="14.8" ry="11.2"/>
		<ellipse fill="#EEB87D" cx="168.2" cy="124.3" rx="14.8" ry="11.2"/>
	</g>
	<g>
		<path fill="#5E391C" d="M102.5,148.6c-1,1.3-2.6,1.3-3.6,0l-7.4-10.1c-1-1.3-0.4-2.4,1.2-2.4h16c1.7,0,2.2,1.1,1.2,2.4
			L102.5,148.6z"/>
	</g>
	<circle fill="#FFFFFF" cx="71.4" cy="121" r="15.2"/>
	<circle fill="#FFFFFF" cx="128.6" cy="122.2" r="15.2"/>
</g>
</svg>
