<?xml version="1.0" encoding="utf-8"?>
<!-- Generator: Adobe Illustrator 14.0.0, SVG Export Plug-In . SVG Version: 6.00 Build 43363)  -->
<!DOCTYPE svg PUBLIC "-//W3C//DTD SVG 1.1//EN" "http://www.w3.org/Graphics/SVG/1.1/DTD/svg11.dtd">
<svg version="1.1" id="Layer_1" xmlns="http://www.w3.org/2000/svg" xmlns:xlink="http://www.w3.org/1999/xlink" x="0px" y="0px"
	 width="800px" height="600px" viewBox="0 0 800 600" enable-background="new 0 0 800 600" xml:space="preserve">
<circle fill="#FFFFFF" stroke="#000000" stroke-width="5" cx="463.708" cy="340.499" r="219.5"/>
<g id="u7OpQj_1_">
	<g>
		<path fill-rule="evenodd" clip-rule="evenodd" fill="#91AB4A" d="M300.576,256.997c4.483,3.236,3.195,11.858-2.039,11.557
			C293.241,268.248,291.33,255.907,300.576,256.997z"/>
		<path fill-rule="evenodd" clip-rule="evenodd" fill="#E6EADF" d="M274.064,264.475c1.501,0.084,0.289,2.883,0.679,4.079
			c0,1.36,0,2.719,0,4.079c-0.39,1.196,0.822,3.995-0.679,4.079C274.064,272.632,274.064,268.553,274.064,264.475z"/>
		<path fill-rule="evenodd" clip-rule="evenodd" fill="#C2D590" d="M433.815,278.07c0.414,0.04,0.806,0.102,0.681,0.679
			c0,2.04,0,4.08,0,6.119C432.945,283.925,434.243,280.137,433.815,278.07z"/>
		<path fill-rule="evenodd" clip-rule="evenodd" fill="#E6EADF" d="M434.496,278.749c1.55,0.943,0.253,4.733,0.68,6.799
			c-0.228,0-0.453,0-0.68,0c0-0.226,0-0.453,0-0.68C434.496,282.829,434.496,280.789,434.496,278.749z"/>
		<path fill-rule="evenodd" clip-rule="evenodd" fill="#C2D590" d="M434.496,285.548c0.227,0,0.452,0,0.68,0c0,0.226,0,0.452,0,0.68
			c0,2.039,0,4.079,0,6.118C433.625,291.404,434.923,287.614,434.496,285.548z"/>
		<path fill-rule="evenodd" clip-rule="evenodd" fill="#C2D590" d="M339.324,312.061c0.944-1.551,4.732-0.254,6.799-0.681
			c-0.039,0.415-0.102,0.806-0.68,0.681C343.402,312.061,341.364,312.061,339.324,312.061z"/>
		<path fill-rule="evenodd" clip-rule="evenodd" fill="#E6EADF" d="M345.442,312.061c-0.437,1.453-10.635,0.66-6.798,0
			c0.227,0,0.453,0,0.679,0C341.364,312.061,343.402,312.061,345.442,312.061z"/>
		<path fill-rule="evenodd" clip-rule="evenodd" fill="#C2D590" d="M520.831,414.71c1.128,1.616,1.128,7.9,0,9.516
			C520.831,421.055,520.831,417.883,520.831,414.71z"/>
		<path fill-rule="evenodd" clip-rule="evenodd" fill="#91AB4A" d="M599.687,423.548c-1.771,2.307-3.787,4.37-7.477,4.757
			c0.281-3.568,2.893-4.81,4.078-7.477c1.386,0.199,1.334,1.839,2.719,2.039C599.422,422.906,599.812,422.968,599.687,423.548z"/>
		<path fill-rule="evenodd" clip-rule="evenodd" fill="#E6EADF" d="M475.963,435.783c0.645,2.456-2.678,0.949-4.078,1.358
			c-0.906,0-1.812,0-2.719,0c0-0.226,0-0.452,0-0.678C471.474,436.278,474.678,436.99,475.963,435.783z"/>
		<path fill-rule="evenodd" clip-rule="evenodd" fill="#C2D590" d="M461.688,436.464c2.266,0,4.533,0,6.799,0
			c0.226,0,0.452,0,0.68,0c0,0.226,0,0.452,0,0.678C466.877,436.713,462.852,438.019,461.688,436.464z"/>
		<path fill-rule="evenodd" clip-rule="evenodd" fill="#C2D590" d="M467.126,447.34c2.957-1.575,8.83-0.235,12.917-0.68
			C477.086,448.235,471.214,446.896,467.126,447.34z"/>
		<path fill-rule="evenodd" clip-rule="evenodd" fill="#C2D590" d="M501.796,448.021c2.284-0.698,1.058,2.113,1.36,3.398
			c2.679,0.187,2.078-2.906,4.759-2.72c-1.362,1.584-2.035,3.857-5.439,3.399c-0.371-0.988,0.795-3.515-0.68-3.399
			C501.796,448.473,501.796,448.246,501.796,448.021z"/>
		<path fill-rule="evenodd" clip-rule="evenodd" fill="#C2D590" d="M620.08,448.699c-0.413-0.038-0.804-0.102-0.68-0.679
			c3.854,0,7.705,0,11.558,0c0,0.226,0,0.452,0,0.679c-0.227,0-0.453,0-0.68,0C626.879,448.699,623.48,448.699,620.08,448.699z"/>
		<path fill-rule="evenodd" clip-rule="evenodd" fill="#E6EADF" d="M620.08,448.699c3.4,0,6.799,0,10.198,0
			C628.438,449.828,621.921,449.828,620.08,448.699z"/>
		<path fill-rule="evenodd" clip-rule="evenodd" fill="#E6EADF" d="M349.522,219.608c1.517-1.655,4.438-1.907,6.797-2.72
			c-0.169,0.739-1.352,0.461-1.36,1.36c-1.511,0.528-2.649,1.427-4.759,1.359C349.974,219.608,349.748,219.608,349.522,219.608z"/>
		<path fill-rule="evenodd" clip-rule="evenodd" fill="#E6EADF" d="M295.817,236.603c1.356-2.36,10.889-5.769,4.759-2.04
			c-0.227,0-0.453,0-0.68,0C298.507,235.214,297.206,235.952,295.817,236.603z"/>
		<path fill-rule="evenodd" clip-rule="evenodd" fill="#E6EADF" d="M278.823,252.238c3.928-6.723,9.503-11.796,16.314-15.635
			C288.981,241.095,283.33,246.094,278.823,252.238z"/>
		<path fill-rule="evenodd" clip-rule="evenodd" fill="#C2D590" d="M395.067,216.208c8.312,5.286,14.457,12.735,21.073,19.715
			c0.773,2.854,2.847,4.405,4.08,6.797c0.894,1.826,1.825,3.615,2.718,5.439C415.799,235.359,406.184,225.032,395.067,216.208z"/>
		<path fill-rule="evenodd" clip-rule="evenodd" fill="#C2D590" d="M423.619,250.198c1.399,0.187,0.641,2.533,2.039,2.72
			c0.222,2.499,1.677,3.762,2.039,6.118C425.758,256.671,424.858,253.265,423.619,250.198z"/>
		<path fill-rule="evenodd" clip-rule="evenodd" fill="#E6EADF" d="M435.176,286.228c2.181,2.577-1.157,10.673,2.039,12.236
			c-3.15,0.431-1.72-3.717-2.039-6.118C435.176,290.307,435.176,288.267,435.176,286.228z"/>
		<path fill-rule="evenodd" clip-rule="evenodd" fill="#A1C34A" d="M483.441,308.662c0.109,0.797,1.239,0.572,2.039,0.678
			c-0.173,6.164-2.542,13.02-0.68,19.036c5.625-2.438,9.051-13.118,8.837-16.996c5.998,1.708,12.698,2.712,16.996,6.12
			c-4.475,3.455-5.917,9.944-6.798,16.993c5.864-0.542,10.135-8.399,13.596-13.596c2.113,0.606,3.167,2.272,5.438,2.72
			c2.641,3.024,5.924,5.406,8.838,8.156c0,0.229,0,0.454,0,0.681c-5.879-2.112-9.612,8.702-12.916,13.597
			c7.096,1.357,12.312-4.858,16.315-8.838c4.086,3.164,5.783,8.719,9.517,12.236c-0.495,1.854,1.352,1.367,1.36,2.719
			c-4.968-2.035-10.894,5.558-14.276,9.518c4.694,2.372,13.963-1.078,16.994-4.759c4.156,4.229,6.953,9.817,11.557,13.597
			c0,0.226,0,0.453,0,0.679c-5.486-2.141-10.064,7.318-12.916,12.237c5.663,0.777,14.746-4.163,15.637-8.158
			c4.174,4.662,7.155,10.519,10.876,15.635c-5.374-2.85-11.039,4.473-14.955,7.478c5.254,3.634,13.666-0.645,18.355-2.038
			c0.226,0,0.452,0,0.678,0c2.174,3.945,5.121,7.115,7.479,10.876c-2.938-0.272-5.465,5.289-6.799,8.837
			c3.364,1.31,8.137-1.819,9.518-4.759c3.386,4.094,7.537,7.42,10.876,11.558c-1.385-0.2-1.333-1.84-2.719-2.039
			c-1.186,2.667-3.797,3.908-4.078,7.477c3.689-0.387,5.705-2.45,7.477-4.757c0.454,0,0.906,0,1.36,0
			c0.682,1.812,2.744,2.241,4.079,3.398c3.136,2.075,6.136,4.288,10.195,5.438c4.808,3.124,11.126,4.735,18.355,5.438
			c0.226,0,0.454,0,0.681,0c3.633,1.578,10.189,0.233,14.955,0.681c-1.336,2.969-4.979,3.632-6.799,6.118
			c-3.731,1.253-7.511,2.459-11.556,3.399c-3.853,0-7.704,0-11.558,0c-1.693-0.572-3.642-0.89-6.117-0.681
			c-18.574-4.312-29.386-16.388-43.508-25.152c-0.226,0-0.454,0-0.68,0c-1.938-2.821-5.546-3.97-8.157-6.119
			c-1.762-0.73-2.527-2.456-4.759-2.719c-2.345-2.413-5.36-4.155-8.838-5.438c-3.038-2.853-7.386-4.397-11.557-6.119
			c-0.226,0-0.452,0-0.679,0c0.124-0.578-0.265-0.641-0.681-0.679c0.957,4.369,4.263,8.073,2.04,13.596c0,0.227,0,0.452,0,0.679
			c-1.346,2.28-2.235,5.016-2.72,8.159c-0.578,1.865-2.205,4.931-0.679,6.798c0,1.359,0,2.718,0,4.078
			c-5.412,6.146-11.46,11.654-18.355,16.314c-0.226,0-0.454,0-0.68,0c-3.208,0.717-3.817-1.166-4.759-2.718
			c-0.578-0.126-0.641,0.265-0.679,0.679c-0.227,0-0.454,0-0.68,0c-2.681-0.187-2.08,2.906-4.759,2.72
			c-0.303-1.285,0.924-4.097-1.36-3.398c-0.226,0-0.454,0-0.68,0c-2.481-0.359-3.054,2.984-4.759,1.359
			c-0.184-3.809,4.92-2.332,4.759-6.118c0.999-2.587-3.039-0.134-2.039-2.72c1.41-1.309,3.293-2.146,4.759-3.4
			c0.227,0,0.452,0,0.679,0c3.1-0.979,5.822-2.335,8.159-4.078c2.137,0.326,2.656-0.968,4.078-1.358
			c2.67-0.955,4.09-3.161,4.079-6.799c0-0.226,0-0.453,0-0.681c1.128-1.615,1.128-7.899,0-9.516c0.44-2.481-0.459-3.621-1.36-4.759
			c-5.503-6.281-14.446-9.12-19.035-16.315c-0.606,1.915-1.487,7.083,0,8.838c0,0.679,0,1.359,0,2.039
			c3.468,24.086-12.95,28.29-19.714,42.147c-0.226,0-0.453,0-0.679,0c-4.087,0.444-9.96-0.896-12.917,0.68c-1.586,0-3.173,0-4.758,0
			c-5.235,1.223-1.393-2.592-4.08-3.399c-0.892-0.815-1.069-0.265-2.039,0c-3.163-0.218-3.781,2.108-6.118,2.72
			c-0.226,0-0.452,0-0.68,0c-2.986-1.561,2.418-2.409,2.72-4.76c0.469-1.827-1.405-1.312-2.04-2.038
			c2.07-2.237,8.086-0.525,9.518-3.398c0.68,0,1.36,0,2.039,0c1.164,1.555,5.189,0.249,7.479,0.678c0.906,0,1.812,0,2.719,0
			c-0.115,1.476,2.411,0.309,3.399,0.681c1.776-0.941,1.926-3.513,2.719-5.438c1.814-6.394,7.319-12.554,6.118-19.714
			c-1.116-3.189-2.082-6.529-4.078-8.838c-0.565-3.74-2.635-5.978-4.08-8.837c-6.181-13.533-18.355-21.071-29.91-29.231
			c-0.228,0-0.452,0-0.681,0c-2.722-2.718-6.709-4.167-9.516-6.798c-1.701-0.115-2.129,1.044-2.72,2.038c0,0.227,0,0.455,0,0.681
			c-1.474-0.115-0.309,2.41-0.681,3.398c1.164,1.104,2.475,2.059,4.759,2.04c0.392,1.422,1.686,1.94,1.359,4.078
			c-0.547,0.36-1.104,0.71-2.039,0.681c-4.172-1.041-10.067-0.355-10.877-4.759c-0.683-5.215,1.319-7.745,3.399-10.197
			c0.114-1.474-2.411-0.308-3.399-0.681c-4.809-0.629-9.6-1.275-14.275-2.038c-6.727-2.414-8.498,5.999-13.596,7.478
			c-0.023-2.969,1.877-4.015,2.04-6.798c0.129-0.552,0.681-0.678,0.68-1.36c-2.936-0.442-3.811,1.175-5.439,2.039
			c-0.547,0.36-1.103,0.71-2.039,0.68c3.44-4.49,6.006-9.854,14.274-9.517c1.588,0,3.174,0,4.76,0
			c0.943,1.551,4.731,0.254,6.797,0.68c-1.637-4.706-7.041-5.646-9.516-9.517c-0.311-4.676-1.201-8.77-2.72-12.236
			c0-0.229,0-0.453,0-0.68c-2.751-5.18-7.589-8.272-12.237-11.558c-0.226,0-0.452,0-0.678,0c-3.272-2.627-8.341-7.06-12.238-6.797
			c-0.226,0-0.452,0-0.68,0c-2.969-0.022-5.3,0.589-7.477,1.359c-4.656,0.556-9.556,0.868-13.596,2.039
			c-4.86,0.124-9.407,0.563-13.595,1.359c-2.067,0.427-5.855-0.87-6.799,0.681c-0.226,0-0.452,0-0.679,0
			c0.144-2.803,4.231-1.662,4.758-4.079c1.855,0.495,1.37-1.351,2.72-1.359c7.841-5.755,14.647-12.545,17.674-23.114
			c0.783-0.803,0.771-2.402,0.68-4.079c1.475,0.114,0.308-2.411,0.681-3.399c-9.244,9.792-19.593,18.477-32.631,24.473
			c-0.227,0-0.453,0-0.679,0c-3.815,1.853-8.689,2.644-12.237,4.759c-5.619,0.727-10.583,2.107-15.636,3.4
			c-4.128,0.502-6.59-0.662-8.837-2.04c-1.35-0.009-0.864-1.854-2.719-1.36c-5.77-4.879-10.484-10.814-14.275-17.675
			c-1.306-4.812-2.577-9.661-3.4-14.955c0-1.359,0-2.719,0-4.079c0.938-4.047,1.641-8.332,2.72-12.237
			c4.825-9.904,13.339-16.119,22.433-21.753c0.227,0,0.453,0,0.68,0c12.107-6.02,28.449-7.808,42.147-12.236
			c2.917-0.482,5.689-1.11,7.477-2.719c2.109,0.068,3.248-0.832,4.759-1.359c6.409-2.431,14.126-3.551,21.075-5.439
			c3.171,0,6.343,0,9.516,0c3.039,1.268,6.557,2.056,9.518,3.398c11.116,8.824,20.731,19.151,27.871,31.951
			c-0.189,1.098,0.644,1.17,0.681,2.039c1.239,3.066,2.139,6.473,4.078,8.837c1.88,6.506,4.838,11.932,6.118,19.034
			c0.428,2.067-0.87,5.855,0.681,6.798c0,0.227,0,0.454,0,0.68c0.427,2.066-0.871,5.856,0.68,6.798
			c0.319,2.401-1.111,6.549,2.039,6.118c0.227,0,0.453,0,0.681,0c0.543,6.253-1.298,14.894,1.359,19.036
			c4.606-2.828,7.187-13.553,6.798-16.997c4.6,0.839,8.584,2.292,13.596,2.72c0.21,0.923,1.702,0.564,2.72,0.681
			c-1.266,5.673-0.853,14.05,0.679,19.033c5.052-2.485,7.542-10.958,6.798-16.995c0.228,0,0.454,0,0.681,0
			c4.186,0.801,7.595,2.377,12.235,2.721C482.988,308.662,483.215,308.662,483.441,308.662z M371.954,221.647
			c-1.1-1.021-5.015-1.021-6.117,0c-10.81,1.879-16.681,8.698-17.675,20.394c0.221,2.499-0.579,6.019,0.681,7.477
			c2.614,9.17,7.954,15.614,19.033,16.316c0.68,0,1.36,0,2.04,0c11.082-0.702,16.42-7.146,19.035-16.316
			c1.259-1.458,0.458-4.979,0.678-7.477C388.635,230.345,382.766,223.526,371.954,221.647z M298.537,268.553
			c5.234,0.302,6.521-8.321,2.039-11.557C291.33,255.907,293.241,268.248,298.537,268.553z"/>
		<path fill-rule="evenodd" clip-rule="evenodd" fill="#C2D590" d="M522.869,323.617c3.316,2.348,6.44,4.891,8.838,8.156
			C528.793,329.023,525.51,326.642,522.869,323.617z"/>
		<path fill-rule="evenodd" clip-rule="evenodd" fill="#C2D590" d="M535.106,337.213c0-0.228,0-0.453,0-0.68
			c2.39,0.782,2.489,3.854,4.758,4.759c0.772,2.854,2.846,4.404,4.079,6.797c0.13,0.551,0.682,0.679,0.68,1.36
			C540.89,345.932,539.192,340.377,535.106,337.213z"/>
		<path fill-rule="evenodd" clip-rule="evenodd" fill="#C2D590" d="M548.701,356.927c0-0.226,0-0.453,0-0.681
			c2.146,0.575,1.935,3.506,4.08,4.079c0,0.227,0,0.454,0,0.68c2.266,3.398,5.212,6.119,7.477,9.519
			C555.654,366.744,552.857,361.155,548.701,356.927z"/>
		<path fill-rule="evenodd" clip-rule="evenodd" fill="#C2D590" d="M573.854,390.916c-3.721-5.116-6.702-10.973-10.876-15.635
			c-0.445-1.82-1.948-2.585-2.721-4.079c1.387,0.2,1.334,1.84,2.721,2.039c0,0.227,0,0.454,0,0.68
			c2.791,3.101,4.435,7.349,7.478,10.197c1.244,3.515,3.736,5.781,5.438,8.838c0.239,0.893,1.196,1.07,1.36,2.04
			C575.442,394.314,575.013,392.253,573.854,390.916z"/>
		<path fill-rule="evenodd" clip-rule="evenodd" fill="#C2D590" d="M577.255,396.355c0-0.227,0-0.454,0-0.681
			c2.144,0.574,1.933,3.505,4.077,4.079c0.846,3.233,3.435,4.725,4.759,7.478c0.241,0.893,1.197,1.069,1.359,2.04
			c-0.979-0.38-1.659-1.061-2.038-2.04c-2.358-3.761-5.306-6.931-7.479-10.876C577.707,396.355,577.48,396.355,577.255,396.355z"/>
		<path fill-rule="evenodd" clip-rule="evenodd" fill="#C2D590" d="M588.131,411.31c-0.131-0.549-0.683-0.677-0.681-1.358
			c4.418,4.193,8.061,9.161,12.917,12.916c0.226,0,0.454,0,0.68,0c0.573,2.146,3.504,1.934,4.079,4.079
			c-1.335-1.157-3.397-1.587-4.079-3.398c-0.454,0-0.906,0-1.36,0c0.125-0.58-0.265-0.642-0.68-0.681
			C595.668,418.729,591.517,415.403,588.131,411.31z"/>
		<path fill-rule="evenodd" clip-rule="evenodd" fill="#C2D590" d="M634.357,437.822c5.438,0,10.876,0,16.313,0
			c-2.055,2.93-4.794,5.176-8.157,6.799c1.819-2.486,5.463-3.149,6.799-6.118C644.547,438.056,637.99,439.4,634.357,437.822z"/>
		<path fill-rule="evenodd" clip-rule="evenodd" fill="#C2D590" d="M613.283,447.34c-7.459-0.473-12.245-3.616-17.676-6.117
			c-2.614-2.824-6.443-4.434-9.517-6.799c-0.227,0-0.453,0-0.679,0c-4.459-4.831-11.178-7.405-15.637-12.236
			C583.897,430.952,594.709,443.027,613.283,447.34z"/>
		<path fill-rule="evenodd" clip-rule="evenodd" fill="#C2D590" d="M569.096,422.188c-1.428-0.838-2.65-1.882-4.079-2.721
			c-1.351-0.007-0.863-1.853-2.719-1.358c-0.24-0.893-1.196-1.069-1.359-2.04C563.55,418.218,567.158,419.366,569.096,422.188z"/>
		<path fill-rule="evenodd" clip-rule="evenodd" fill="#C2D590" d="M547.342,407.912c-3.771-2.12-8.163-3.62-11.557-6.119
			C539.956,403.515,544.304,405.06,547.342,407.912z"/>
		<path fill-rule="evenodd" clip-rule="evenodd" fill="#C2D590" d="M535.106,401.793c1.33,3.375,4.683,9.027,1.359,12.917
			c2.223-5.522-1.083-9.227-2.04-13.596C534.842,401.152,535.23,401.215,535.106,401.793z"/>
		<path fill-rule="evenodd" clip-rule="evenodd" fill="#C2D590" d="M536.466,415.389c-0.483,3.143-1.373,5.879-2.72,8.159
			C534.23,420.404,535.12,417.669,536.466,415.389z"/>
		<path fill-rule="evenodd" clip-rule="evenodd" fill="#C2D590" d="M533.067,430.346c0.578-0.126,0.641,0.264,0.679,0.679
			c0,1.587,0,3.174,0,4.759c-5.419,4.099-10.506,8.527-14.955,13.597c-2.141-0.329-1.539,2.087-4.079,1.358
			c6.896-4.66,12.943-10.169,18.355-16.314C533.067,433.063,533.067,431.705,533.067,430.346z"/>
		<path fill-rule="evenodd" clip-rule="evenodd" fill="#C2D590" d="M508.595,448.699c0.038-0.414,0.101-0.805,0.679-0.679
			c0.941,1.552,1.551,3.435,4.759,2.718c-0.018,0.662-0.831,0.528-1.358,0.681c-0.908,0-1.814,0-2.721,0
			C510.144,449.869,509.79,448.862,508.595,448.699z"/>
		<path fill-rule="evenodd" clip-rule="evenodd" fill="#C2D590" d="M503.836,437.142c-1.466,1.255-3.349,2.092-4.759,3.4
			c-1,2.586,3.038,0.133,2.039,2.72c0.161,3.786-4.942,2.31-4.759,6.118c1.705,1.625,2.277-1.719,4.759-1.359
			c-1.438,0.825-1.974,2.557-4.079,2.718c-0.24-0.892-1.196-1.069-1.36-2.039c0.229-3.171,4.644-2.154,4.759-5.438
			c-0.615-1.986-2.502-0.198-2.718-1.361c0-0.226,0-0.451,0-0.678c1.102-2.072,3.45-2.896,5.438-4.081
			C503.382,437.142,503.609,437.142,503.836,437.142z"/>
		<path fill-rule="evenodd" clip-rule="evenodd" fill="#C2D590" d="M504.515,437.142c1.233-1.713,4.207-1.685,5.438-3.397
			c1.22,0.087,1.435-0.832,2.721-0.681C510.337,434.807,507.614,436.163,504.515,437.142z"/>
		<path fill-rule="evenodd" clip-rule="evenodd" fill="#C2D590" d="M516.752,431.705c1.5-1.9,3.791-3.007,3.398-6.799
			c0.227,0,0.453,0,0.681,0C520.842,428.544,519.422,430.75,516.752,431.705z"/>
		<path fill-rule="evenodd" clip-rule="evenodd" fill="#C2D590" d="M519.471,409.951c-2.974-2.69-6.166-5.164-10.197-6.799
			c-3.017-1.515-4.655-4.408-6.798-6.797c-2.539-4.253-2.133,3.509-2.04,6.118c-1.487-1.755-0.606-6.923,0-8.838
			C505.024,400.831,513.968,403.67,519.471,409.951z"/>
		<path fill-rule="evenodd" clip-rule="evenodd" fill="#C2D590" d="M500.436,404.513c0.228,0,0.454,0,0.681,0
			c0,1.36,0,2.719,0,4.078c2.178,13.055-4.064,17.69-8.838,23.794c0,0.227,0,0.452,0,0.679c-4.55,3.835-7.362,9.405-11.557,13.597
			C487.485,432.803,503.903,428.599,500.436,404.513z"/>
		<path fill-rule="evenodd" clip-rule="evenodd" fill="#C2D590" d="M458.288,443.94c2.688,0.808-1.155,4.622,4.08,3.399
			c0,0.227,0,0.453,0,0.681c-0.453,0-0.907,0-1.359,0c-1.575,0.216-2.61-0.11-3.398-0.681
			C458.205,446.138,459.764,445.356,458.288,443.94z"/>
		<path fill-rule="evenodd" clip-rule="evenodd" fill="#C2D590" d="M450.131,446.66c2.337-0.611,2.955-2.938,6.118-2.72
			C454.197,444.41,451.788,448.052,450.131,446.66z"/>
		<path fill-rule="evenodd" clip-rule="evenodd" fill="#C2D590" d="M449.451,446.66c-1.098,0.191-1.17-0.643-2.039-0.681
			c0.873-1.846,3.481-1.956,4.078-4.079c-0.162-1.195-1.168-1.549-2.718-1.358c1.143-3.842,7.972-1.998,10.876-4.078
			c-1.432,2.873-7.447,1.161-9.518,3.398c0.635,0.726,2.509,0.211,2.04,2.038C451.869,444.251,446.465,445.1,449.451,446.66z"/>
		<path fill-rule="evenodd" clip-rule="evenodd" fill="#C2D590" d="M475.963,435.783c0.292-1.294,1.466-1.708,1.361-3.398
			c0.226,0,0.451,0,0.679,0c-0.793,1.925-0.942,4.496-2.719,5.438c-0.988-0.372-3.515,0.795-3.399-0.681
			C473.285,436.732,476.607,438.239,475.963,435.783z"/>
		<path fill-rule="evenodd" clip-rule="evenodd" fill="#C2D590" d="M484.121,412.671c-2.048-2.032-2.38-5.777-4.078-8.158
			c0-0.227,0-0.452,0-0.68C482.039,406.142,483.005,409.481,484.121,412.671z"/>
		<path fill-rule="evenodd" clip-rule="evenodd" fill="#C2D590" d="M474.604,394.316c-0.802-3.504-3.286-5.324-4.759-8.158
			c-4.694-5.955-10.891-10.409-16.993-14.956c-0.229,0-0.453,0-0.681,0c-1.327-2.524-4.625-3.079-6.118-5.438
			c11.555,8.16,23.729,15.698,29.91,29.231C475.413,394.866,475.286,394.313,474.604,394.316z"/>
		<path fill-rule="evenodd" clip-rule="evenodd" fill="#C2D590" d="M445.372,365.765c-1.005-0.354-1.713-1.007-2.719-1.361
			c-0.227,0-0.453,0-0.68,0c-1.542-2.082-4.292-2.959-6.117-4.757c-1.855-0.496-1.37,1.351-2.72,1.358
			c0.591-0.994,1.019-2.153,2.72-2.038C438.663,361.598,442.65,363.047,445.372,365.765z"/>
		<path fill-rule="evenodd" clip-rule="evenodd" fill="#C2D590" d="M437.215,367.124c1.582,0.686,2.191,2.339,2.04,4.759
			c-1.267-0.65-2.272,2.035-2.72,0c0.936,0.029,1.492-0.32,2.039-0.681C438.9,369.064,437.606,368.546,437.215,367.124z"/>
		<path fill-rule="evenodd" clip-rule="evenodd" fill="#C2D590" d="M425.658,367.124c-4.137-4.984,6.011-10.079,0-10.878
			c0.988,0.373,3.514-0.793,3.399,0.681C426.978,359.379,424.976,361.909,425.658,367.124z"/>
		<path fill-rule="evenodd" clip-rule="evenodd" fill="#C2D590" d="M399.827,354.888c-0.163,2.783-2.063,3.829-2.04,6.798
			c5.098-1.479,6.87-9.892,13.596-7.478c-1.133,0-2.267,0-3.399,0c-3.107,2.557-6.527,4.8-8.837,8.157c-0.452,0-0.906,0-1.359,0
			c-1.977-2.177,1.091-3.431,0.679-6.119C399.205,356.079,398.927,354.896,399.827,354.888z"/>
		<path fill-rule="evenodd" clip-rule="evenodd" fill="#C2D590" d="M407.303,346.729c-8.268-0.337-10.834,5.026-14.274,9.517
			c0.936,0.03,1.491-0.319,2.039-0.68c-0.128,0.552-0.681,0.679-0.68,1.36c-0.963,0.058-1.923,0.113-2.039-0.681
			c2.177-4.394,6.225-6.918,9.518-10.195c1.813,0,3.626,0,5.437,0C407.303,346.276,407.303,346.503,407.303,346.729z"/>
		<path fill-rule="evenodd" clip-rule="evenodd" fill="#C2D590" d="M412.062,346.729c2.039,0,4.078,0,6.119,0
			c-1.15-2.249-3.662-3.137-5.439-4.758c-1.681-0.812-2.658-2.328-3.398-4.079c2.475,3.87,7.879,4.811,9.516,9.517
			C416.794,346.983,413.006,348.28,412.062,346.729z"/>
		<path fill-rule="evenodd" clip-rule="evenodd" fill="#C2D590" d="M406.624,324.977c-3.278-4.653-8.277-7.585-12.237-11.558
			C399.035,316.704,403.873,319.797,406.624,324.977z"/>
		<path fill-rule="evenodd" clip-rule="evenodd" fill="#C2D590" d="M392.349,312.74c-3.55-2.116-6.507-4.822-10.877-6.118
			c3.897-0.263,8.965,4.17,12.238,6.797C393.157,313.29,393.03,312.737,392.349,312.74z"/>
		<path fill-rule="evenodd" clip-rule="evenodd" fill="#C2D590" d="M346.123,306.622c4.12-4.265,9.113-7.656,12.237-12.917
			c0-0.227,0-0.452,0-0.68c2.148-1.702,3.057-4.646,4.079-7.478c0-0.226,0-0.453,0-0.68c0.737-0.168,0.46-1.351,1.358-1.359
			C360.77,294.077,353.963,300.867,346.123,306.622z"/>
		<path fill-rule="evenodd" clip-rule="evenodd" fill="#C2D590" d="M364.477,279.43c0-0.681,0-1.36,0-2.039
			c-6.731,7.771-14.726,14.279-23.792,19.714c-0.229,0-0.454,0-0.681,0c-2.387,1.239-4.5,2.752-7.478,3.398
			c13.038-5.996,23.387-14.681,32.631-24.473C364.785,277.019,365.951,279.543,364.477,279.43z"/>
		<path fill-rule="evenodd" clip-rule="evenodd" fill="#C2D590" d="M319.61,305.262c3.547-2.115,8.421-2.906,12.237-4.759
			C328.768,303.092,324.084,304.07,319.61,305.262z"/>
		<path fill-rule="evenodd" clip-rule="evenodd" fill="#C2D590" d="M303.974,308.662c-2.765,1.83-7.809,0.125-8.837-2.04
			C297.384,308,299.846,309.164,303.974,308.662z"/>
		<path fill-rule="evenodd" clip-rule="evenodd" fill="#C2D590" d="M292.417,305.262c-5.61-3.228-8.874-8.799-12.916-13.597
			c0.178-1.989-1.537-2.087-1.359-4.078C281.934,294.447,286.647,300.383,292.417,305.262z"/>
		<path fill-rule="evenodd" clip-rule="evenodd" fill="#C2D590" d="M277.462,256.316c-0.176-1.99,1.537-2.088,1.36-4.079
			c4.507-6.144,10.158-11.143,16.314-15.635c0.228,0,0.454,0,0.68,0c1.389-0.651,2.69-1.389,4.079-2.04
			C290.802,240.198,282.288,246.413,277.462,256.316z"/>
		<path fill-rule="evenodd" clip-rule="evenodd" fill="#C2D590" d="M342.723,222.327c1.677-1.497,4.834-1.511,6.799-2.719
			c0.226,0,0.452,0,0.678,0C348.412,221.217,345.64,221.845,342.723,222.327z"/>
		<path fill-rule="evenodd" clip-rule="evenodd" fill="#E6EADF" d="M601.047,422.867c3.957,3.525,11.66,6.914,14.274,9.518
			c-4.06-1.15-7.06-3.363-10.195-5.438C604.551,424.801,601.62,425.013,601.047,422.867z"/>
		<path fill-rule="evenodd" clip-rule="evenodd" fill="#E6EADF" d="M600.367,422.867c-4.856-3.755-8.499-8.723-12.917-12.916
			c0-0.226,0-0.454,0-0.68c-0.162-0.971-1.118-1.147-1.359-2.04C590.721,412.572,595.533,417.73,600.367,422.867z"/>
		<path fill-rule="evenodd" clip-rule="evenodd" fill="#E6EADF" d="M581.332,399.754c-2.145-0.574-1.934-3.505-4.077-4.079
			c0-0.226,0-0.452,0-0.679c-0.164-0.97-1.121-1.147-1.36-2.04C578.312,394.617,579.566,397.442,581.332,399.754z"/>
		<path fill-rule="evenodd" clip-rule="evenodd" fill="#E6EADF" d="M562.979,373.921c3.404,2.487,5.167,6.618,7.478,10.197
			C567.413,381.27,565.77,377.021,562.979,373.921z"/>
		<path fill-rule="evenodd" clip-rule="evenodd" fill="#E6EADF" d="M562.979,373.241c-1.387-0.199-1.334-1.839-2.721-2.039
			c0-0.226,0-0.453,0-0.679c-2.265-3.399-5.211-6.12-7.477-9.519C556.801,364.463,559.689,369.053,562.979,373.241z"/>
		<path fill-rule="evenodd" clip-rule="evenodd" fill="#E6EADF" d="M552.781,360.325c-2.146-0.573-1.935-3.504-4.08-4.079
			c-0.838-1.428-1.881-2.649-2.718-4.078c-0.009-1.352-1.855-0.864-1.36-2.719c0.002-0.682-0.55-0.81-0.68-1.36
			C547.337,351.721,549.699,356.384,552.781,360.325z"/>
		<path fill-rule="evenodd" clip-rule="evenodd" fill="#E6EADF" d="M539.864,341.292c-2.269-0.904-2.368-3.977-4.758-4.759
			c-0.703-1.789-2.695-2.29-3.399-4.079c0-0.227,0-0.452,0-0.681c-2.397-3.266-5.521-5.809-8.838-8.156
			c-2.271-0.447-3.324-2.113-5.438-2.72c-1.791-1.382-4.009-2.336-6.119-3.397c0.126-0.553-0.264-0.68-0.679-0.681
			C519.938,316.859,533.741,332.42,539.864,341.292z"/>
		<path fill-rule="evenodd" clip-rule="evenodd" fill="#FFFFFF" d="M645.799,375.086c-5.575-7.674-6.457-16.555-8.088-25.61
			c-1.115-6.191-2.893-12.185-5.164-18.002c-5.563-3.473-9.884-10.028-13.39-14.924c-5.055-7.058-9.503-14.482-14.213-21.764
			c-6.18-9.552-13.6-18.547-20.894-27.446c-13.02-14.636-24.911-30.447-37.47-45.242c-0.778-0.917-1.164-1.912-1.248-2.891
			c-6.469-1.463-13.085-2.281-19.546-3.824c-1.612-0.385-2.63-1.374-3.151-2.574H390.309c10.67,5.646,18.771,13.86,25.832,23.113
			c0.773,2.854,2.847,4.405,4.08,6.797c2.621,2.591,3.946,6.476,5.438,10.198c0.222,2.499,1.677,3.762,2.039,6.118
			c1.88,6.506,4.838,11.932,6.118,19.034c0.414,0.04,0.806,0.102,0.681,0.679c1.55,0.943,0.253,4.733,0.68,6.799v0.68
			c2.181,2.577-1.157,10.673,2.039,12.236h0.681c2.822,0.575,5.864,0.934,8.157,2.039c4.6,0.839,8.584,2.292,13.596,2.72
			c4.133,0.172,6.773,1.838,10.196,2.719h0.681c3.91-1.627,8.971,1.443,12.235,2.721h0.681c3.524,0.781,7.037,1.572,10.196,2.718
			c5.998,1.708,12.698,2.712,16.996,6.12h0.679c0.126-0.553-0.264-0.68-0.679-0.681c9.305,0.04,23.107,15.601,29.23,24.473
			c0.772,2.854,2.846,4.404,4.079,6.797c3.394,3.632,5.756,8.295,8.838,12.236v0.68c4.02,3.458,6.908,8.048,10.197,12.236v0.68
			c3.404,2.487,5.167,6.618,7.478,10.197c1.244,3.515,3.736,5.781,5.438,8.838c2.417,1.661,3.672,4.486,5.438,6.798
			c0.846,3.233,3.435,4.725,4.759,7.478c4.63,5.341,9.442,10.499,14.276,15.636h0.68c3.957,3.525,11.66,6.914,14.274,9.518
			c4.808,3.124,11.126,4.735,18.355,5.438c4.361-1.177,13.297-1.068,17.675,0v-60.534
			C649.446,377.738,647.241,377.071,645.799,375.086z"/>
		<path fill-rule="evenodd" clip-rule="evenodd" fill="#E6EADF" d="M470.525,305.941c3.91-1.627,8.971,1.443,12.235,2.721
			C478.12,308.318,474.711,306.742,470.525,305.941z"/>
		<path fill-rule="evenodd" clip-rule="evenodd" fill="#E6EADF" d="M420.221,242.72c2.621,2.591,3.946,6.476,5.438,10.198
			c-1.398-0.187-0.64-2.533-2.039-2.72c-0.037-0.869-0.87-0.941-0.681-2.039C422.046,246.335,421.114,244.546,420.221,242.72z"/>
		<path fill-rule="evenodd" clip-rule="evenodd" fill="#E6EADF" d="M416.141,235.923c-6.616-6.979-12.762-14.429-21.073-19.715
			c-2.96-1.343-6.479-2.13-9.518-3.398c1.587,0,3.173,0,4.759,0C400.979,218.456,409.08,226.669,416.141,235.923z"/>
		<path fill-rule="evenodd" clip-rule="evenodd" fill="#C2D590" d="M348.161,242.041c0.995-11.696,6.865-18.515,17.675-20.394
			C356.02,224.519,350.059,231.249,348.161,242.041z"/>
		<path fill-rule="evenodd" clip-rule="evenodd" fill="#C2D590" d="M369.915,265.834c10.139-1.646,15.726-7.842,19.035-16.316
			C386.335,258.688,380.997,265.132,369.915,265.834z"/>
		<path fill-rule="evenodd" clip-rule="evenodd" fill="#C2D590" d="M371.954,221.647c10.812,1.879,16.681,8.698,17.675,20.394
			C387.732,231.249,381.772,224.519,371.954,221.647z"/>
		<path fill-rule="evenodd" clip-rule="evenodd" fill="#E6EADF" d="M279.501,291.665c4.042,4.798,7.306,10.369,12.916,13.597
			c1.855-0.494,1.369,1.352,2.719,1.36c1.029,2.165,6.073,3.87,8.837,2.04c5.053-1.293,10.018-2.674,15.636-3.4
			c4.474-1.191,9.158-2.17,12.237-4.759c0.226,0,0.452,0,0.679,0c2.977-0.646,5.091-2.159,7.478-3.398
			c-2.905,1.728-0.8,5.416-1.359,10.196c-2.742-1.109-3.056-4.647-5.438-6.117c-1.692-0.105-2.105,1.067-3.398,1.359
			c0.903,2.041,0.69,5.2,0.678,8.158c-2.741-1.111-3.057-4.648-5.437-6.12c-3.899-0.497-0.772,6.027-2.72,7.479
			c-2.431-0.742-2.273-4.072-4.079-5.438c-5.093-0.787-3.322,5.286-4.079,8.837c-2.752-1.101-2.67-5.034-4.759-6.797
			c-0.68,0-1.36,0-2.039,0c-2.786,0.84-0.384,6.867-2.04,8.838C298.989,306.621,284.319,304.07,279.501,291.665z"/>
		<path fill-rule="evenodd" clip-rule="evenodd" fill="#E6EADF" d="M340.685,297.104c9.066-5.435,17.061-11.942,23.792-19.714
			c0,0.679,0,1.358,0,2.039c0.09,1.677,0.103,3.276-0.68,4.079c-0.898,0.008-0.621,1.191-1.358,1.359
			c-2.925-4.259-7.398,2.305-4.759,6.12c-2.706,0.438-2.733-1.799-5.439-1.361c-0.893,0.241-1.069,1.197-2.04,1.361
			c0.097,2.621,2.298,3.142,2.04,6.117c-2.272-0.672-3.164-2.726-5.438-3.399c-3.531,0.971-1.022,5.318-0.679,8.158
			C342.719,301.869,343.694,297.493,340.685,297.104z"/>
		<path fill-rule="evenodd" clip-rule="evenodd" fill="#E6EADF" d="M362.438,285.548c-1.021,2.832-1.93,5.775-4.079,7.478
			C359.804,290.619,360.61,287.573,362.438,285.548z"/>
		<path fill-rule="evenodd" clip-rule="evenodd" fill="#E6EADF" d="M343.402,307.981c-0.549,0.129-0.677,0.682-1.359,0.681
			c-2.163,0.363,4.014-3.08,6.118-4.759c4.04-3.224,6.889-6.876,10.198-10.198c-3.124,5.261-8.117,8.652-12.237,12.917
			C344.772,306.631,345.258,308.477,343.402,307.981z"/>
		<path fill-rule="evenodd" clip-rule="evenodd" fill="#C2D590" d="M359.718,310.021c4.04-1.171,8.94-1.483,13.596-2.039
			c0,0.227,0,0.452,0,0.681C369.678,310.01,364.839,310.156,359.718,310.021z"/>
		<path fill-rule="evenodd" clip-rule="evenodd" fill="#E6EADF" d="M373.314,307.981c2.177-0.771,4.508-1.382,7.477-1.359
			c-1.145,2.025-4.619,1.724-7.477,2.04C373.314,308.434,373.314,308.208,373.314,307.981z"/>
		<path fill-rule="evenodd" clip-rule="evenodd" fill="#FFFFFF" d="M563.531,444.896c0.691-2.408,3.191-4.454,6.18-3.895
			c13.862,2.595,26.922,8.387,40.818,10.796c7.207,1.25,14.249,1.396,21.374-0.432c5.051-1.296,10.01-2.908,15.056-4.2
			c0.575-0.66,1.199-1.29,1.887-1.878c0.706-0.604,1.585-0.981,2.506-1.154v-5.63c-5.309,4.888-10.725,9.67-20.394,10.196h-0.68
			c-1.84,1.129-8.357,1.129-10.198,0c-0.413-0.038-0.804-0.102-0.68-0.679c-1.693-0.572-3.642-0.89-6.117-0.681
			c-7.459-0.473-12.245-3.616-17.676-6.117c-3.322-2.116-7.093-3.784-9.517-6.799h-0.679c-6.851-4.932-14.206-9.361-20.396-14.957
			c-1.351-0.007-0.863-1.853-2.719-1.358c-1.575-1.261-9.11-5.504-6.118-4.759c-2.345-2.413-5.36-4.155-8.838-5.438
			c-3.771-2.12-8.163-3.62-11.557-6.119h-0.679c1.33,3.375,4.683,9.027,1.359,12.917v0.679c-0.483,3.143-1.373,5.879-2.72,8.159
			c-0.578,1.865-2.205,4.931-0.679,6.798c0.578-0.126,0.641,0.264,0.679,0.679c1.108,9.497-10.624,12.034-14.955,18.355
			c-2.141-0.329-1.539,2.087-4.079,1.358h-0.68c-0.018,0.662-0.831,0.528-1.358,0.681c-4,0.996-5.741,7.843-8.838,7.478
			c-1.683-1.763,0.661-3.334,0-6.118c-4.576,0.184-4.342,5.176-8.837,5.438c-0.258-3.695,2.941-7.139,0-9.518
			c-0.667-2.327-3.924,1.818-4.759-0.679c1.166-3.592,4.63-4.888,7.478-6.798c1.102-2.072,3.45-2.896,5.438-4.081
			c1.88-1.518,4.151-2.646,6.797-3.397c1.22,0.087,1.435-0.832,2.721-0.681c2.137,0.326,2.656-0.968,4.078-1.358
			c1.5-1.9,3.791-3.007,3.398-6.799c2.215-13.093-3.645-18.109-10.877-21.754c-3.017-1.515-4.655-4.408-6.798-6.797
			c-2.668-1.827-0.805,5.713-1.359,8.157v4.078c3.587,11.748-3.378,18.827-8.838,23.794v0.679
			c-6.704,9.112-10.622,18.649-29.91,14.957h-1.359c-4.275,0.709-7.463,2.509-12.236,2.718c3.076-5.678-5.606-4.405-8.159-4.759
			c1.327-4.563,7.355-4.426,9.518-8.157c-1.016-0.795-2.779-0.845-3.398-2.039c5.823-4.978,14.404,0.842,21.754,0.681h0.68
			c2.308-0.186,5.512,0.526,6.797-0.681c0.292-1.294,1.466-1.708,1.361-3.398h0.679c1.814-6.394,7.319-12.554,6.118-19.714
			c-2.048-2.032-2.38-5.777-4.078-8.158c-2.274-2.938-3.546-6.88-5.439-10.196c-0.802-3.504-3.286-5.324-4.759-8.158
			c-5.216-5.433-11.589-9.712-16.993-14.956h-0.681c-3.046-2.393-6.663-4.214-9.518-6.799h-0.68
			c-3.064-0.787-3.854-3.849-7.478-4.078c-0.542,0.448-1.136,4.684-1.359,1.36c-1.474-0.115-0.309,2.41-0.681,3.398
			c1.164,1.104,2.475,2.059,4.759,2.04c1.582,0.686,2.191,2.339,2.04,4.759c-1.267-0.65-2.272,2.035-2.72,0
			c-4.172-1.041-10.067-0.355-10.877-4.759c-4.137-4.984,6.011-10.079,0-10.878c-4.809-0.629-9.6-1.275-14.275-2.038h-3.399
			c-2.453,3.211-5.982,5.347-8.837,8.157h-1.359c-1.977-2.177,1.091-3.431,0.679-6.119c-0.152-0.527-0.018-1.341-0.679-1.358
			c-0.618,1.194-2.381,1.242-3.399,2.039c-0.963,0.058-1.923,0.113-2.039-0.681c0.336-3.524,5.799-7.79,9.518-10.195h5.437
			c2.963-0.438,7.686,0.886,9.519-0.681c-1.752-0.74-3.267-1.718-4.079-3.398c-1.681-0.812-2.658-2.328-3.398-4.079
			c-0.311-4.676-1.201-8.77-2.72-12.236c0.03,0.723-0.32,1.727-0.681,0.68c-2.291-6.771-9.225-8.902-13.595-13.596
			c-3.55-2.116-6.507-4.822-10.877-6.118h-0.68c-1.145,2.025-4.619,1.724-7.477,2.04c-3.636,1.348-8.475,1.494-13.596,1.358
			c-4.86,0.124-9.407,0.563-13.595,1.359c-0.039,0.415-0.102,0.806-0.68,0.681c-0.437,1.453-10.635,0.66-6.798,0
			c0.144-2.803,4.231-1.662,4.758-4.079c-0.549,0.129-0.677,0.682-1.359,0.681c-2.163,0.363,4.014-3.08,6.118-4.759
			c4.04-3.224,6.889-6.876,10.198-10.198v-0.68c1.444-2.406,2.25-5.452,4.079-7.478v-0.68c-2.925-4.259-7.398,2.305-4.759,6.12
			c-2.706,0.438-2.733-1.799-5.439-1.361c-0.893,0.241-1.069,1.197-2.04,1.361c0.097,2.621,2.298,3.142,2.04,6.117
			c-2.272-0.672-3.164-2.726-5.438-3.399c-3.531,0.971-1.022,5.318-0.679,8.158c-3.403,0.006-2.429-4.37-5.438-4.759h-0.681
			c-2.905,1.728-0.8,5.416-1.359,10.196c-2.742-1.109-3.056-4.647-5.438-6.117c-1.692-0.105-2.105,1.067-3.398,1.359
			c0.903,2.041,0.69,5.2,0.678,8.158c-2.741-1.111-3.057-4.648-5.437-6.12c-3.899-0.497-0.772,6.027-2.72,7.479
			c-2.431-0.742-2.273-4.072-4.079-5.438c-5.093-0.787-3.322,5.286-4.079,8.837c-2.752-1.101-2.67-5.034-4.759-6.797h-2.039
			c-2.786,0.84-0.384,6.867-2.04,8.838c-6.345-10.879-21.015-13.43-25.833-25.835c0.178-1.989-1.537-2.087-1.359-4.078
			c-1.306-4.812-2.577-9.661-3.4-14.955c-0.39,1.196,0.822,3.995-0.679,4.079v46.238c6.874,4.54,13.899,8.938,20.928,13.353
			c12.624,2.09,24.903,6.043,36.372,11.991c16.454,8.535,31.323,20.521,44.415,33.602c18.51,18.496,44.99,50.039,36.096,78.362
			h167.562c-5.129-1.721-10.246-3.605-15.383-5.612C559.314,452.794,560.004,446.266,563.531,444.896z"/>
		<path fill-rule="evenodd" clip-rule="evenodd" fill="#E6EADF" d="M392.349,312.74c0.681-0.003,0.809,0.55,1.36,0.679
			c0.226,0,0.452,0,0.678,0c3.959,3.973,8.958,6.904,12.237,11.558c0,0.227,0,0.451,0,0.68c0.03,0.723-0.32,1.727-0.681,0.68
			C403.652,319.564,396.719,317.434,392.349,312.74z"/>
		<path fill-rule="evenodd" clip-rule="evenodd" fill="#E6EADF" d="M412.742,341.972c1.777,1.621,4.289,2.509,5.439,4.758
			c-2.041,0-4.08,0-6.119,0c-1.586,0-3.172,0-4.76,0c0-0.227,0-0.453,0-0.679c2.963-0.438,7.686,0.886,9.519-0.681
			C415.069,344.63,413.555,343.652,412.742,341.972z"/>
		<path fill-rule="evenodd" clip-rule="evenodd" fill="#E6EADF" d="M392.349,356.246c0.336-3.524,5.799-7.79,9.518-10.195
			C398.574,349.328,394.525,351.853,392.349,356.246z"/>
		<path fill-rule="evenodd" clip-rule="evenodd" fill="#E6EADF" d="M394.387,356.927c-0.001-0.682,0.552-0.809,0.68-1.36
			c1.628-0.864,2.503-2.481,5.439-2.039c0.001,0.683-0.551,0.809-0.68,1.36c-0.899,0.008-0.622,1.191-1.361,1.358
			c-0.152-0.527-0.018-1.341-0.679-1.358C397.168,356.082,395.406,356.13,394.387,356.927z"/>
		<path fill-rule="evenodd" clip-rule="evenodd" fill="#E6EADF" d="M399.146,362.365c2.31-3.357,5.73-5.601,8.837-8.157
			C405.53,357.419,402.001,359.555,399.146,362.365z"/>
		<path fill-rule="evenodd" clip-rule="evenodd" fill="#E6EADF" d="M433.137,361.005c1.35-0.008,0.864-1.854,2.72-1.358
			c1.825,1.798,4.575,2.675,6.117,4.757c-3.064-0.787-3.854-3.849-7.478-4.078c-0.542,0.448-1.136,4.684-1.359,1.36
			C433.137,361.46,433.137,361.231,433.137,361.005z"/>
		<path fill-rule="evenodd" clip-rule="evenodd" fill="#E6EADF" d="M442.653,364.403c1.006,0.354,1.714,1.007,2.719,1.361
			c0.229,0,0.453,0,0.681,0c1.493,2.358,4.791,2.913,6.118,5.438C449.125,368.81,445.508,366.988,442.653,364.403z"/>
		<path fill-rule="evenodd" clip-rule="evenodd" fill="#E6EADF" d="M452.852,371.202c6.103,4.547,12.299,9.001,16.993,14.956
			C464.629,380.726,458.256,376.446,452.852,371.202z"/>
		<path fill-rule="evenodd" clip-rule="evenodd" fill="#E6EADF" d="M474.604,394.316c0.683-0.003,0.81,0.55,1.359,0.68
			c1.445,2.859,3.515,5.097,4.08,8.837c0,0.228,0,0.453,0,0.68C477.769,401.575,476.497,397.633,474.604,394.316z"/>
		<path fill-rule="evenodd" clip-rule="evenodd" fill="#E6EADF" d="M468.486,436.464c-2.266,0-4.533,0-6.799,0
			c-0.679,0-1.359,0-2.039,0c-2.904,2.08-9.733,0.236-10.876,4.078c1.55-0.19,2.556,0.163,2.718,1.358
			c-0.597,2.123-3.205,2.233-4.078,4.079c0.869,0.038,0.941,0.872,2.039,0.681c0.228,0,0.454,0,0.68,0
			c1.657,1.392,4.066-2.25,6.118-2.72c0.97-0.265,1.147-0.815,2.039,0c1.476,1.416-0.083,2.197-0.678,3.399
			c0.788,0.57,1.823,0.896,3.398,0.681c-4.275,0.709-7.463,2.509-12.236,2.718c3.076-5.678-5.606-4.405-8.159-4.759
			c1.327-4.563,7.355-4.426,9.518-8.157c-1.016-0.795-2.779-0.845-3.398-2.039C452.556,430.806,461.137,436.625,468.486,436.464z"/>
		<path fill-rule="evenodd" clip-rule="evenodd" fill="#E6EADF" d="M467.126,447.34c4.088-0.444,9.96,0.896,12.917-0.68
			c0.226,0,0.453,0,0.679,0c4.194-4.191,7.007-9.762,11.557-13.597c-6.704,9.112-10.622,18.649-29.91,14.957
			c0-0.228,0-0.454,0-0.681C463.953,447.34,465.54,447.34,467.126,447.34z"/>
		<path fill-rule="evenodd" clip-rule="evenodd" fill="#E6EADF" d="M492.278,432.385c4.773-6.104,11.016-10.739,8.838-23.794
			C504.703,420.339,497.738,427.418,492.278,432.385z"/>
		<path fill-rule="evenodd" clip-rule="evenodd" fill="#E6EADF" d="M500.436,402.474c-0.093-2.609-0.499-10.371,2.04-6.118
			c-2.668-1.827-0.805,5.713-1.359,8.157c-0.227,0-0.453,0-0.681,0C500.436,403.833,500.436,403.152,500.436,402.474z"/>
		<path fill-rule="evenodd" clip-rule="evenodd" fill="#E6EADF" d="M509.273,403.152c4.031,1.635,7.224,4.108,10.197,6.799
			c0.901,1.138,1.801,2.277,1.36,4.759c0,3.173,0,6.345,0,9.516c0,0.228,0,0.455,0,0.681c-0.228,0-0.454,0-0.681,0
			C522.365,411.813,516.506,406.797,509.273,403.152z"/>
		<path fill-rule="evenodd" clip-rule="evenodd" fill="#E6EADF" d="M503.156,437.142c1.88-1.518,4.151-2.646,6.797-3.397
			c-1.231,1.713-4.205,1.685-5.438,3.397c-0.227,0-0.452,0-0.679,0S503.382,437.142,503.156,437.142z"/>
		<path fill-rule="evenodd" clip-rule="evenodd" fill="#E6EADF" d="M497.718,441.223c0,0.227,0,0.452,0,0.678
			c0.216,1.163,2.103-0.625,2.718,1.361c-0.115,3.283-4.529,2.267-4.759,5.438c0.164,0.97,1.12,1.147,1.36,2.039
			c2.105-0.161,2.641-1.893,4.079-2.718c0.226,0,0.454,0,0.68,0c0,0.226,0,0.452,0,0.679c1.475-0.115,0.309,2.411,0.68,3.399
			c3.404,0.458,4.077-1.815,5.439-3.399c0.226,0,0.453,0,0.68,0c1.195,0.163,1.549,1.17,1.358,2.72c0.906,0,1.812,0,2.721,0
			c-4,0.996-5.741,7.843-8.838,7.478c-1.683-1.763,0.661-3.334,0-6.118c-4.576,0.184-4.342,5.176-8.837,5.438
			c-0.258-3.695,2.941-7.139,0-9.518c-0.667-2.327-3.924,1.818-4.759-0.679C491.406,444.429,494.87,443.133,497.718,441.223z"/>
		<path fill-rule="evenodd" clip-rule="evenodd" fill="#E6EADF" d="M518.791,449.38c4.449-5.069,9.536-9.498,14.955-13.597
			c0-1.585,0-3.172,0-4.759C534.854,440.521,523.122,443.059,518.791,449.38z"/>
		<path fill-rule="evenodd" clip-rule="evenodd" fill="#E6EADF" d="M562.298,418.108c-1.575-1.261-9.11-5.504-6.118-4.759
			c2.231,0.263,2.997,1.988,4.759,2.719C561.102,417.039,562.058,417.216,562.298,418.108z"/>
		<path fill-rule="evenodd" clip-rule="evenodd" fill="#E6EADF" d="M565.017,419.467c1.429,0.839,2.651,1.883,4.079,2.721
			c0.226,0,0.454,0,0.68,0c4.459,4.831,11.178,7.405,15.637,12.236C578.562,429.492,571.206,425.062,565.017,419.467z"/>
		<path fill-rule="evenodd" clip-rule="evenodd" fill="#E6EADF" d="M586.091,434.424c3.073,2.365,6.902,3.975,9.517,6.799
			C592.285,439.106,588.515,437.438,586.091,434.424z"/>
		<path fill-rule="evenodd" clip-rule="evenodd" fill="#E6EADF" d="M630.958,448.021c4.045-0.94,7.824-2.146,11.556-3.399
			c3.363-1.623,6.103-3.869,8.157-6.799c-5.438,0-10.876,0-16.313,0c-0.227,0-0.455,0-0.681,0c4.361-1.177,13.297-1.068,17.675,0
			c0,0.227,0,0.454,0,0.681c-5.309,4.888-10.725,9.67-20.394,10.196C630.958,448.473,630.958,448.246,630.958,448.021z"/>
		<path fill-rule="evenodd" clip-rule="evenodd" fill="#91AB4A" d="M531.707,332.454c0.704,1.789,2.696,2.29,3.399,4.079
			c0,0.227,0,0.452,0,0.68c-4.004,3.979-9.22,10.195-16.315,8.838C522.095,341.156,525.828,330.342,531.707,332.454z"/>
		<path fill-rule="evenodd" clip-rule="evenodd" fill="#91AB4A" d="M545.983,352.168c0.837,1.429,1.88,2.65,2.718,4.078
			c0,0.228,0,0.455,0,0.681c-3.031,3.681-12.3,7.131-16.994,4.759C535.09,357.726,541.016,350.133,545.983,352.168z"/>
		<path fill-rule="evenodd" clip-rule="evenodd" fill="#91AB4A" d="M560.258,371.202c0.772,1.494,2.275,2.259,2.721,4.079
			c-0.891,3.995-9.974,8.936-15.637,8.158C550.193,378.521,554.771,369.062,560.258,371.202z"/>
		<path fill-rule="evenodd" clip-rule="evenodd" fill="#91AB4A" d="M573.854,390.916c1.158,1.337,1.588,3.398,3.4,4.08
			c0,0.227,0,0.453,0,0.679c0,0.227,0,0.454,0,0.681c-4.689,1.394-13.102,5.672-18.355,2.038
			C562.815,395.389,568.48,388.066,573.854,390.916z"/>
		<path fill-rule="evenodd" clip-rule="evenodd" fill="#91AB4A" d="M585.412,407.231c0.379,0.979,1.06,1.66,2.038,2.04
			c0,0.226,0,0.454,0,0.68c-0.002,0.682,0.55,0.81,0.681,1.358c-1.381,2.939-6.153,6.068-9.518,4.759
			C579.947,412.521,582.475,406.959,585.412,407.231z"/>
		<path fill-rule="evenodd" clip-rule="evenodd" fill="#FFFFFF" d="M354.959,218.249c6.409-2.431,14.126-3.551,21.075-5.439h-47.131
			c0.502,2.33-0.454,4.889-3.458,5.574c-19.608,4.475-34.965,16.5-51.381,27.279v18.812c1.501,0.084,0.289,2.883,0.679,4.079
			c0.938-4.047,1.641-8.332,2.72-12.237c-0.176-1.99,1.537-2.088,1.36-4.079c3.928-6.723,9.503-11.796,16.314-15.635h0.68
			c1.356-2.36,10.889-5.769,4.759-2.04c12.107-6.02,28.449-7.808,42.147-12.236c1.677-1.497,4.834-1.511,6.799-2.719
			c1.517-1.655,4.438-1.907,6.797-2.72C356.15,217.627,354.967,217.35,354.959,218.249z"/>
		<path fill-rule="evenodd" clip-rule="evenodd" fill="#91AB4A" d="M437.896,298.464c2.822,0.575,5.864,0.934,8.157,2.039
			c0.389,3.444-2.191,14.169-6.798,16.997C436.598,313.357,438.438,304.717,437.896,298.464z"/>
		<path fill-rule="evenodd" clip-rule="evenodd" fill="#91AB4A" d="M459.648,303.223c4.133,0.172,6.773,1.838,10.196,2.719
			c0.744,6.037-1.746,14.51-6.798,16.995c-1.531-4.983-1.944-13.36-0.679-19.033C461.351,303.787,459.858,304.146,459.648,303.223z"
			/>
		<path fill-rule="evenodd" clip-rule="evenodd" fill="#91AB4A" d="M483.441,308.662c3.524,0.781,7.037,1.572,10.196,2.718
			c0.214,3.878-3.212,14.559-8.837,16.996c-1.862-6.017,0.507-12.872,0.68-19.036C484.681,309.234,483.551,309.459,483.441,308.662z
			"/>
		<path fill-rule="evenodd" clip-rule="evenodd" fill="#91AB4A" d="M511.312,317.5c2.11,1.062,4.328,2.016,6.119,3.397
			c-3.461,5.196-7.731,13.054-13.596,13.596c0.881-7.049,2.323-13.538,6.798-16.993C510.859,317.5,511.087,317.5,511.312,317.5z"/>
	</g>
</g>
</svg>
